<?xml version="1.0" encoding="UTF-8"?>
<svg version="1.1" xmlns="http://www.w3.org/2000/svg" width="512" height="512">
<path d="M0 0 C4.3835368 4.05456593 5.39456368 8.9659972 6.75 14.5625 C6.97042969 15.41263672 7.19085938 16.26277344 7.41796875 17.13867188 C8.38019838 20.94874262 9 24.02929062 9 28 C9.8971875 27.63648437 10.794375 27.27296875 11.71875 26.8984375 C15.07540332 25.54268236 18.43912155 24.20527027 21.80517578 22.87304688 C23.256034 22.2959313 24.70497806 21.71397759 26.15185547 21.12695312 C28.24211597 20.27990063 30.33883531 19.45097446 32.4375 18.625 C33.07429688 18.36251465 33.71109375 18.1000293 34.3671875 17.82958984 C39.202642 15.95597689 42.90377045 15.35704239 48 16 C50.93892725 18.52361871 51.84400989 20.15579771 52.54589844 23.9543457 C52.5668457 25.01741943 52.58779297 26.08049316 52.609375 27.17578125 C52.64160156 28.33271484 52.67382812 29.48964844 52.70703125 30.68164062 C52.72121094 31.87982422 52.73539062 33.07800781 52.75 34.3125 C52.79447266 36.1387793 52.79447266 36.1387793 52.83984375 38.00195312 C52.91041823 41.00136833 52.96317864 44.0000117 53 47 C53.51272461 47.26103516 54.02544922 47.52207031 54.55371094 47.79101562 C69.22253603 55.29294051 82.44080219 63.22435691 95 74 C95.80953125 74.68578125 96.6190625 75.3715625 97.453125 76.078125 C117.50802712 93.54529781 130.79240065 114.57352697 143 138 C144.27617188 137.51660156 144.27617188 137.51660156 145.578125 137.0234375 C154.00448726 134.50322413 162.89231282 135.14744652 170.859375 138.796875 C172.80243923 139.88896219 174.44981379 141.05086151 176.1875 142.4375 C179.53819681 145.03745106 183.18505505 146.14865326 187.1875 147.375 C203.95370928 152.63300535 218.05250388 163.77963563 227 179 C236.05535341 196.52023828 240.24229634 217.81325391 234.16796875 237.1484375 C226.59326475 255.64186198 215.57189913 272.03873399 197 281 C192.38033358 282.83099561 187.72485744 284.45781636 183 286 C182.01 286.33 181.02 286.66 180 287 C180.47288452 288.22904053 180.47288452 288.22904053 180.95532227 289.48291016 C243.15541727 451.99530187 243.15541727 451.99530187 236 500 C234.4375 502.625 234.4375 502.625 232 504 C228.51241098 504.43594863 226.10635592 504.52109197 222.8996582 503.01074219 C220.0128618 499.95513813 219.74651234 496.40193646 219.10546875 492.390625 C218.95265442 491.52452103 218.79984009 490.65841705 218.64239502 489.7660675 C218.31459924 487.90158131 217.99401993 486.03581493 217.67990112 484.16897583 C216.84935346 479.24545225 215.96116454 474.33230102 215.078125 469.41796875 C214.90288803 468.43573837 214.72765106 467.453508 214.54710388 466.44151306 C212.16443724 453.18491669 209.14081067 440.09638261 206 427 C205.59297852 425.27765137 205.59297852 425.27765137 205.17773438 423.52050781 C195.29524439 381.85602436 182.23931486 340.78334599 167.04956055 300.76196289 C166.78477402 300.06379959 166.51998749 299.36563629 166.24717712 298.64631653 C165.53497923 296.7736824 164.81796573 294.9028817 164.10058594 293.03222656 C163.24818635 290.68377873 162.52978633 288.43581648 162 286 C161.278125 286.20625 160.55625 286.4125 159.8125 286.625 C156.50585814 287.06588558 154.9373808 286.50838474 152 285 C150 283 150 283 149.375 279.6875 C149.4972556 274.05355439 152.86035695 269.91053628 155.83984375 265.3515625 C167.06182531 247.94024211 171.29889459 229.41354429 171.3359375 208.9140625 C171.3425943 207.61350922 171.3492511 206.31295593 171.35610962 204.97299194 C171.36796966 202.24514429 171.37180132 199.51742233 171.37060547 196.78955078 C171.37040079 193.30607877 171.39790453 189.82340891 171.43214989 186.34012794 C171.45976848 182.98976067 171.4585661 179.63954206 171.4609375 176.2890625 C171.48249405 174.42334091 171.48249405 174.42334091 171.50448608 172.51992798 C171.46784655 163.95525178 171.46784655 163.95525178 167 157 C162.84468544 153.32786155 159.58126268 152.34464222 154.17578125 152.6171875 C149.25820737 153.48239799 146.63823106 156.17202457 143.6875 160 C140.83933479 165.06340481 140.84288549 169.62232909 140.7890625 175.34375 C140.76100571 176.99870801 140.73234133 178.65365581 140.703125 180.30859375 C140.66180943 182.90901529 140.62490661 185.50924368 140.59863281 188.10986328 C140.57103309 190.62572118 140.52517978 193.14072223 140.4765625 195.65625 C140.47330963 196.43238647 140.47005676 197.20852295 140.46670532 198.00817871 C140.3936179 201.21798289 140.21176392 203.60633329 138.67724609 206.45898438 C135.93360055 208.9797836 133.6501292 209 130 209 C125.1587858 206.2545225 121.54573433 202.74802396 117.74609375 198.765625 C116.54928314 197.53861851 115.35200188 196.31207096 114.15429688 195.0859375 C112.30185666 193.1781751 110.4536192 191.26682492 108.61401367 189.34667969 C94.92615583 175.09610495 80.30301673 164.39667386 59.625 163.6875 C44.71407961 163.91206205 30.70904455 169.88490879 19.80859375 179.9921875 C8.53594156 192.50653572 4.2569853 207.21752142 4.6875 223.7109375 C5.94611627 247.3204811 24.73342068 262.95356991 40.21484375 278.56494141 C41.65676842 280.02348862 43.09329771 281.48738922 44.52441406 282.95654297 C59.21109919 298.02866142 72.80249222 308.78117501 94.75 309.4375 C107.08835292 308.9799591 118.1863387 305.17405956 127.625 297.1875 C130.5463305 294.81941262 132.51446323 293.49503042 136.3125 293.3125 C140 294 140 294 142.5 295.625 C144.43102443 298.68245535 144.44522837 300.438173 144 304 C140.92715099 312.31673263 129.51451143 317.15798024 121.99609375 320.74609375 C115.72986174 323.36859763 109.80066388 325.08069904 103 325 C103.20455811 325.63647461 103.40911621 326.27294922 103.61987305 326.92871094 C118.30048887 373.11256996 128.5064628 420.3719873 136.4375 468.125 C136.61761627 469.20123627 136.79773254 470.27747253 136.98330688 471.38632202 C137.49598052 474.46717895 137.99787722 477.54958829 138.49609375 480.6328125 C138.64881744 481.54695419 138.80154114 482.46109589 138.95889282 483.40293884 C141.253137 497.85922429 141.253137 497.85922429 138.5 502.5625 C134.73635524 504.72659573 132.31944059 504.47993784 128 504 C125.32341832 501.96798923 124.55702399 500.25108983 123.97265625 496.9921875 C123.74690918 495.77631958 123.74690918 495.77631958 123.51660156 494.53588867 C123.36674805 493.65779541 123.21689453 492.77970215 123.0625 491.875 C122.8984668 490.96661377 122.73443359 490.05822754 122.56542969 489.12231445 C120.54626901 477.77650885 118.763115 466.38796543 117 455 C115.98099609 455.66696899 115.98099609 455.66696899 114.94140625 456.34741211 C78.63032323 479.99682048 36.04781183 495.97596789 -7.73046875 496.203125 C-8.63534027 496.21009399 -9.54021179 496.21706299 -10.47250366 496.22424316 C-13.37755021 496.24155049 -16.28240404 496.24796308 -19.1875 496.25 C-20.17765106 496.25100708 -21.16780212 496.25201416 -22.18795776 496.25305176 C-36.35126224 496.24328406 -50.07981552 495.82041005 -64 493 C-65.6521873 492.69446526 -67.30453431 492.38979308 -68.95703125 492.0859375 C-79.21684562 490.12619768 -89.13022364 487.40198697 -99 484 C-100.23492187 483.58234375 -101.46984375 483.1646875 -102.7421875 482.734375 C-120.86935283 476.38928352 -138.05308712 467.66606346 -154 457 C-154.99 456.34 -155.98 455.68 -157 455 C-157.19634033 456.27641357 -157.39268066 457.55282715 -157.5949707 458.86791992 C-158.32773932 463.61265962 -159.0747024 468.35507436 -159.82592773 473.09692383 C-160.14880464 475.14775112 -160.4678524 477.19918514 -160.78295898 479.2512207 C-161.23711771 482.20432521 -161.70509913 485.15495851 -162.17578125 488.10546875 C-162.31341385 489.02023483 -162.45104645 489.93500092 -162.59284973 490.87748718 C-163.41078588 495.90788133 -164.24536161 500.24536161 -168 504 C-175.00187149 504.57392389 -175.00187149 504.57392389 -178.5 502.5625 C-182.1255215 496.36890077 -179.65169582 487.52723697 -178.53125 480.7734375 C-178.37578201 479.80533646 -178.22031403 478.83723541 -178.06013489 477.83979797 C-177.5493273 474.68327303 -177.02611845 471.5290072 -176.5 468.375 C-176.31915863 467.28289215 -176.13831726 466.1907843 -175.95199585 465.06558228 C-168.11444259 417.88431072 -158.34265931 370.36830743 -143 325 C-143.64718994 324.95246582 -144.29437988 324.90493164 -144.96118164 324.85595703 C-168.2144894 322.88785598 -185.30394547 306.42016726 -199.8125 289.44140625 C-200.204375 288.96574219 -200.59625 288.49007813 -201 288 C-203.35877327 290.35877327 -203.96231433 292.18757059 -205.109375 295.31640625 C-205.52678955 296.45053955 -205.9442041 297.58467285 -206.37426758 298.75317383 C-206.83357527 300.02268526 -207.29212528 301.29247103 -207.75 302.5625 C-207.98753998 303.21801849 -208.22507996 303.87353699 -208.46981812 304.54891968 C-210.05168196 308.91804783 -211.61614832 313.29319825 -213.17205811 317.67163086 C-213.99910238 319.99747567 -214.82984615 322.32197833 -215.66064453 324.64648438 C-234.44195762 377.35024544 -248.69986649 431.32262562 -258.11328125 486.4765625 C-258.28625732 487.46060059 -258.4592334 488.44463867 -258.63745117 489.45849609 C-258.9508912 491.25312467 -259.25041319 493.05026991 -259.5324707 494.85009766 C-260.11902451 498.19321157 -260.53570206 500.50608634 -262.8984375 503.01953125 C-266.10702047 504.51647237 -268.51549232 504.43556346 -272 504 C-274.4375 502.625 -274.4375 502.625 -276 500 C-277.28141275 490.87482506 -274.71747443 481.26539652 -273.0625 472.3125 C-272.90794342 471.46463928 -272.75338684 470.61677856 -272.59414673 469.7432251 C-261.24581332 407.71548892 -243.93296053 345.39979453 -220 287 C-220.72703125 286.78085937 -221.4540625 286.56171875 -222.203125 286.3359375 C-243.09135658 279.74811062 -258.79163038 267.99629664 -269.23828125 248.578125 C-276.96910034 232.87650575 -279.46627262 211.76257813 -274.171875 194.85546875 C-270.02718264 184.75623503 -265.36557961 175.16692739 -258 167 C-257.2575 166.12021484 -257.2575 166.12021484 -256.5 165.22265625 C-247.82178262 155.65492158 -235.98953162 150.1280829 -224 146 C-220.50704307 144.68624971 -217.51371966 143.43260603 -214.625 141 C-207.12340324 135.2844977 -198.11615625 135.17708789 -189 136 C-186.9793981 136.60134218 -184.97012048 137.24962027 -183 138 C-182.74943848 137.50298584 -182.49887695 137.00597168 -182.24072266 136.49389648 C-171.90698801 116.11933351 -159.79912971 98.5392979 -144 82 C-143.46648926 81.44022461 -142.93297852 80.88044922 -142.38330078 80.30371094 C-122.67043081 60.07134624 -95.81766053 45.95464446 -68.90625 38.15625 C-63.88942473 36.69006724 -60.13558478 35.53167732 -56.5625 31.5625 C-45.31543517 19.91450791 -17.52004262 -4.50611461 0 0 Z M-19.0625 23 C-19.73498779 23.40863281 -20.40747559 23.81726563 -21.1003418 24.23828125 C-31.21455831 30.4929505 -41.51129736 38.36697375 -49.1171875 47.55859375 C-53.25420256 51.06216341 -57.63952068 51.9936915 -62.8125 53.375 C-82.96144442 59.15078863 -101.4465579 68.01346045 -118 81 C-118.90105469 81.69738281 -119.80210937 82.39476562 -120.73046875 83.11328125 C-141.10546971 99.29258384 -160.85431498 122.8334806 -169 148 C-168.69669589 151.98339397 -167.57802033 155.66224763 -166.5 159.5 C-164.75210598 166.28694457 -164.2995536 173.01730227 -164 180 C-160.76110869 177.26493623 -157.56018201 174.52728106 -154.47265625 171.62109375 C-140.38438097 158.38175328 -123.60671707 149.10413253 -104 148 C-103.18273437 147.94714844 -102.36546875 147.89429688 -101.5234375 147.83984375 C-80.54313811 147.12812268 -64.2545552 155.66752447 -48.35546875 168.24609375 C-44.89658522 170.82161399 -41.23098789 173.0346408 -37.5625 175.296875 C-35.25996797 176.82721641 -33.36883537 178.41097183 -31.375 180.3125 C-27.66194435 183.60905538 -23.95308552 184.84467676 -19 185 C-12.17066326 183.54456758 -7.53403805 179.57870179 -2.08984375 175.3359375 C0.77896241 173.16710553 3.68602761 171.25332981 6.75 169.375 C10.09965121 167.30707877 12.96891286 165.216803 15.8125 162.5 C24.1359948 154.94247098 35.11309221 151.04333855 46 149 C47.175625 148.773125 48.35125 148.54625 49.5625 148.3125 C69.580362 146.49269436 90.18897592 151.16505923 105.91015625 164.1328125 C109.06976599 166.82898711 112.1582542 169.59858151 115.22558594 172.39892578 C118.0993706 174.99197474 121.04813274 177.49659599 124 180 C124.06731323 179.15405273 124.06731323 179.15405273 124.13598633 178.29101562 C124.34957223 175.69287478 124.58092152 173.09659654 124.8125 170.5 C124.91788086 169.1696875 124.91788086 169.1696875 125.02539062 167.8125 C125.42280894 163.48858872 125.95450605 159.73997558 127.63671875 155.71875 C129.63843286 150.25848686 128.68130477 147.55869238 126.3984375 142.3359375 C125.73366016 141.01071362 125.05871289 139.69055461 124.375 138.375 C124.015271 137.6727832 123.65554199 136.97056641 123.28491211 136.24707031 C105.81459225 102.4524036 80.39391191 78.8478893 46.59228516 62.02172852 C45.16021729 61.30134399 45.16021729 61.30134399 43.69921875 60.56640625 C42.41277466 59.93134155 42.41277466 59.93134155 41.1003418 59.28344727 C39 58 39 58 37 55 C36.68115234 52.9152832 36.68115234 52.9152832 36.5859375 50.55078125 C36.54726563 49.70322266 36.50859375 48.85566406 36.46875 47.98242188 C36.4378125 47.10134766 36.406875 46.22027344 36.375 45.3125 C36.33632813 44.41982422 36.29765625 43.52714844 36.2578125 42.60742188 C36.16359782 40.4051538 36.07798412 38.20289278 36 36 C28.74798383 37.93879427 21.9404599 40.58528195 15.06665039 43.57446289 C5.11444643 47.82228472 5.11444643 47.82228472 0.2578125 45.93359375 C-2.60270222 43.48384499 -3.15136317 41.68074498 -4.125 38.0625 C-4.44210937 36.91523437 -4.75921875 35.76796875 -5.0859375 34.5859375 C-5.38757813 33.40257812 -5.68921875 32.21921875 -6 31 C-6.30164063 29.83726563 -6.60328125 28.67453125 -6.9140625 27.4765625 C-7.63100496 24.65569546 -8.32655812 21.83151698 -9 19 C-13.08070297 19 -15.68234376 20.93251361 -19.0625 23 Z M-208.8125 158.0625 C-211.74531331 162.0008493 -212.13050569 163.70007638 -212.17700195 168.54101562 C-212.18983719 169.70403198 -212.20267242 170.86704834 -212.21589661 172.06530762 C-212.22328354 173.3328186 -212.23067047 174.60032959 -212.23828125 175.90625 C-212.246353 177.21468872 -212.25442474 178.52312744 -212.26274109 179.87121582 C-212.27779155 182.65551626 -212.2876106 185.43979109 -212.29516602 188.22412109 C-212.30393425 191.04628714 -212.32457911 193.86794594 -212.35668945 196.68994141 C-212.52877953 212.15185059 -212.65282369 227.09070242 -208 242 C-207.722771 242.90105469 -207.44554199 243.80210937 -207.15991211 244.73046875 C-206.46097444 246.78871198 -205.68580951 248.76055963 -204.8125 250.75 C-204.51843262 251.43843994 -204.22436523 252.12687988 -203.92138672 252.83618164 C-198.80696949 264.36418956 -191.65626572 273.86371954 -183 283 C-181.84870744 284.34952837 -180.70257798 285.70348433 -179.5625 287.0625 C-168.43478376 299.75425009 -155.2863494 309.18844074 -137.96875 310.34765625 C-121.36803188 310.94994988 -108.37162299 306.20180229 -96.20405579 294.92138672 C-89.32526711 288.49677501 -82.62567052 281.88533141 -75.95288086 275.24804688 C-74.43811005 273.74486662 -72.91886477 272.24618242 -71.39526367 270.75195312 C-61.3843038 260.93287267 -52.39457782 251.88979935 -47.125 238.625 C-46.73570312 237.66851562 -46.34640625 236.71203125 -45.9453125 235.7265625 C-41.57076259 223.10905904 -43.11392012 207.70769751 -48.4765625 195.69140625 C-56.3164167 180.20858917 -67.56881369 170.57875822 -84 165 C-98.54773487 160.85583814 -113.55946667 163.23222461 -127 170 C-136.78172506 176.05688599 -144.47615399 184.18326805 -152.4375 192.375 C-154.31604089 194.30152313 -156.19687598 196.22558904 -158.08399963 198.14370728 C-159.24787079 199.32720502 -160.40678882 200.51560083 -161.55992126 201.70956421 C-166.64266556 206.88755784 -166.64266556 206.88755784 -170 208 C-173.625 207.8125 -173.625 207.8125 -177 207 C-179.5059831 203.24102534 -179.29647328 200.2484615 -179.30859375 195.89453125 C-179.33377004 194.25455399 -179.35916781 192.61458011 -179.38476562 190.97460938 C-179.41340053 188.39869191 -179.43742428 185.82283377 -179.45629883 183.24682617 C-179.47812092 180.75407205 -179.51758749 178.2620333 -179.55859375 175.76953125 C-179.55870956 175.01090286 -179.55882538 174.25227448 -179.5589447 173.47065735 C-179.66933553 167.42524914 -180.71155055 161.68599746 -184.75390625 156.94140625 C-185.35074219 156.48636719 -185.94757813 156.03132812 -186.5625 155.5625 C-187.16191406 155.08941406 -187.76132813 154.61632812 -188.37890625 154.12890625 C-195.37522582 149.25677046 -203.62735635 152.00328928 -208.8125 158.0625 Z M-244.1875 175.625 C-255.77867929 187.97781736 -260.64365584 202.03124263 -260.47314453 218.68554688 C-260.22713488 225.66956151 -258.99664365 231.6426345 -256 238 C-255.36384766 239.39412109 -255.36384766 239.39412109 -254.71484375 240.81640625 C-247.75669464 254.75208651 -236.80626684 263.86834434 -222.3046875 269.2890625 C-219.18848885 270.25033056 -216.24577665 270.71775855 -213 271 C-214.33271672 266.77446689 -215.95672473 262.83253034 -217.8125 258.8125 C-223.08128676 246.68654223 -227.01256884 232.99168877 -227.20532227 219.71923828 C-227.2352401 217.88801926 -227.2352401 217.88801926 -227.26576233 216.01980591 C-227.29083107 214.06480667 -227.29083107 214.06480667 -227.31640625 212.0703125 C-227.33700243 210.71124681 -227.35799955 209.35218714 -227.37937927 207.99313354 C-227.43432513 204.43238226 -227.48385447 200.87157583 -227.53222656 197.31072998 C-227.58264353 193.67064562 -227.63822371 190.03064041 -227.69335938 186.390625 C-227.80060423 179.26048546 -227.90212261 172.13027478 -228 165 C-233.12646381 165 -240.58117242 172.24855784 -244.1875 175.625 Z M188 165 C187.99635437 165.70949295 187.99270874 166.4189859 187.98895264 167.14997864 C187.95064379 173.92844392 187.89332198 180.70652874 187.81609726 187.48465443 C187.77705276 190.9670801 187.74465914 194.44926918 187.72900391 197.93188477 C187.61032172 222.51900106 184.70134937 242.93547019 174.625 265.375 C172.86364803 268.64207608 172.86364803 268.64207608 173 271 C186.99438643 269.20426015 199.06720099 262.02971605 208.1875 251.375 C218.69845632 237.63313096 221.35575148 222.81131832 220 206 C217.53169542 192.19993348 209.64108762 179.70238207 198.5625 171.109375 C195.1503642 168.79720403 191.69001004 166.82840503 188 165 Z M-30 199 C-29.835 200.2375 -29.67 201.475 -29.5 202.75 C-27.49398546 223.88800396 -28.90414844 244.30048454 -42.17773438 261.88500977 C-49.73838726 270.82716493 -57.83413378 279.17354646 -66.12426758 287.43994141 C-68.43916561 289.75166332 -70.74034521 292.0764719 -73.04101562 294.40234375 C-99.55198303 321.02986908 -99.55198303 321.02986908 -117.875 322.625 C-121.1891658 323.05952796 -121.1891658 323.05952796 -124 325 C-132.46606196 338.64723809 -134.17360918 358.45318735 -131.38671875 374.015625 C-127.89432258 388.47752985 -121.07849251 401.09804274 -111 412 C-110.38769531 412.69222656 -109.77539062 413.38445312 -109.14453125 414.09765625 C-89.85306476 434.78765123 -59.48222786 446.8551854 -31.58544922 448.15966797 C6.14197307 449.34495134 39.06504625 441.22936991 67.62109375 415.65234375 C81.96594125 401.93644403 91.80098581 382.82694465 92.41943359 362.83911133 C92.48275096 354.20313564 91.5382233 346.28872091 89 338 C88.74089844 336.83082031 88.48179687 335.66164063 88.21484375 334.45703125 C87.20292348 330.76577552 86.25745388 328.09890963 84 325 C80.41518642 323.35125097 76.89071016 322.57848448 73.04296875 321.85546875 C53.96630552 318.22593889 39.56769609 300.92078261 26.50512695 287.82080078 C24.18242211 285.49491516 21.84661493 283.1827578 19.50976562 280.87109375 C2.53617586 263.97043111 -10.92612495 246.15421656 -11.31884766 221.25097656 C-11.30081934 213.7928005 -10.98643096 206.39823221 -10 199 C-10.68964844 199.08378906 -11.37929688 199.16757813 -12.08984375 199.25390625 C-18.2993459 199.92681526 -23.82141232 199.9115949 -30 199 Z M-144 388 C-145.26675391 393.71012511 -146.53007336 399.42099542 -147.7902832 405.13256836 C-148.2190382 407.07352979 -148.64871388 409.01428809 -149.0793457 410.95483398 C-149.69988096 413.75190563 -150.31704882 416.54970269 -150.93359375 419.34765625 C-151.12529648 420.2083522 -151.31699921 421.06904816 -151.51451111 421.95582581 C-152.5384452 426.61936482 -153.55267205 431.2423367 -154 436 C-151.55905723 439.54108599 -147.5875386 441.68730214 -144 444 C-143.28489258 444.46100098 -142.56978516 444.92200195 -141.83300781 445.39697266 C-109.26530726 466.09426598 -70.72080751 479.99193945 -31.76953125 480.203125 C-30.90512924 480.21013931 -30.04072723 480.21715363 -29.15013123 480.22438049 C-26.37086744 480.241818 -23.59181651 480.24823412 -20.8125 480.25 C-19.86459595 480.25067474 -18.91669189 480.25134949 -17.94006348 480.25204468 C-4.38811328 480.23668193 8.70895059 479.85894427 22 477 C22.88413574 476.82307617 23.76827148 476.64615234 24.67919922 476.46386719 C54.02068289 470.574209 82.07100427 459.72998997 106.4375 442.125 C107.40586792 441.42818115 107.40586792 441.42818115 108.39379883 440.71728516 C112.05526171 438.0261354 112.05526171 438.0261354 114 434 C113.55244646 431.26942264 113.02979405 428.62366074 112.41796875 425.9296875 C112.24372879 425.13402374 112.06948883 424.33835999 111.88996887 423.51858521 C111.32984455 420.96903336 110.75883264 418.42206104 110.1875 415.875 C109.81373401 414.18245031 109.44067914 412.48974341 109.06835938 410.796875 C108.21763077 406.9364611 107.35924316 403.07782811 106.4961853 399.22015381 C105.6604963 395.48090937 104.83041207 391.74041929 104 388 C102.21649873 390.6752519 100.85905448 393.34287927 99.48876953 396.24169922 C85.79898237 424.91250778 61.75741012 444.47409319 31.94458008 455.03173828 C22.76669516 458.11681149 13.57635193 460.53710253 4 462 C2.85789062 462.18304688 1.71578125 462.36609375 0.5390625 462.5546875 C-17.35633888 464.69931041 -37.50367316 464.26212375 -55 460 C-56.19592773 459.70996094 -56.19592773 459.70996094 -57.41601562 459.4140625 C-80.03048038 453.70316103 -99.41236087 443.28750132 -117 428 C-117.61230469 427.47277344 -118.22460938 426.94554687 -118.85546875 426.40234375 C-128.50297371 417.44230945 -135.52185129 406.05373047 -140.66015625 394.046875 C-141.93418162 390.91148613 -141.93418162 390.91148613 -144 388 Z " fill="#000000" transform="translate(276,4)"/>
<path d="M0 0 C0.66873803 -0.00297112 1.33747607 -0.00594224 2.02647889 -0.0090034 C4.27190715 -0.01768923 6.51728209 -0.01919854 8.76272583 -0.02069092 C10.37079991 -0.02531913 11.97887288 -0.0303438 13.58694458 -0.03573608 C17.95886363 -0.04886077 22.33076732 -0.05530504 26.702703 -0.05974674 C29.43333614 -0.06267703 32.16396507 -0.06678173 34.8945961 -0.07125092 C43.43596975 -0.08492531 51.9773338 -0.09459256 60.51871765 -0.09845281 C70.38270631 -0.10293518 80.24655652 -0.12049161 90.11050308 -0.1494534 C97.7326622 -0.17105729 105.35478233 -0.18115638 112.97697175 -0.18249393 C117.53060929 -0.18354278 122.08411667 -0.18946769 126.63772202 -0.20731354 C130.92065497 -0.22377216 135.20335959 -0.22596053 139.48631287 -0.21717453 C141.05807735 -0.216403 142.629854 -0.22076217 144.20158768 -0.23063278 C146.3478807 -0.24332106 148.49336118 -0.23749327 150.63964844 -0.22705078 C152.4409789 -0.22925062 152.4409789 -0.22925062 154.27869987 -0.2314949 C157.76847856 0.17820613 159.65271303 1.04586142 162.44680786 3.14044189 C166.55694649 11.36071915 162.84709093 23.69696415 160.17874146 32.07012939 C152.88055065 52.71344429 137.85775305 69.10029783 118.44680786 79.14044189 C93.73082517 90.55320444 66.00254027 91.60154602 40.38430786 82.51544189 C20.91678171 75.08456767 3.43228833 60.19880759 -5.51266479 41.25762939 C-10.55351661 29.9446137 -14.34887564 17.65741219 -12.55319214 5.14044189 C-9.46218505 -0.20103528 -5.77902416 0.01432395 0 0 Z M4.44680786 16.14044189 C6.17685712 31.71088526 12.86402011 43.50358181 24.44680786 54.14044189 C25.10680786 54.14044189 25.76680786 54.14044189 26.44680786 54.14044189 C27.86288536 52.2874696 27.86288536 52.2874696 29.25930786 49.95294189 C31.68419807 46.20431936 34.1140668 43.14803749 37.44680786 40.14044189 C38.16223755 39.43661377 38.16223755 39.43661377 38.89212036 38.71856689 C48.81912446 29.41499783 62.05538294 25.46412493 75.44680786 24.76544189 C91.01713233 25.57780665 105.25910646 31.1456319 116.44680786 42.14044189 C119.47808398 45.91294247 122.2785913 49.80400877 124.44680786 54.14044189 C133.73527795 50.17736132 139.81559188 39.1383069 143.70462036 30.27325439 C145.72580691 25.05774505 146.44680786 21.92214575 146.44680786 16.14044189 C99.58680786 16.14044189 52.72680786 16.14044189 4.44680786 16.14044189 Z M45.44680786 53.14044189 C41.23940382 58.16699964 41.23940382 58.16699964 39.44680786 64.14044189 C48.20756811 68.13408576 57.66359439 72.14044189 67.44680786 72.14044189 C67.53768677 71.12723877 67.53768677 71.12723877 67.63040161 70.09356689 C67.71419067 69.20153564 67.79797974 68.30950439 67.88430786 67.39044189 C67.9655188 66.50872314 68.04672974 65.62700439 68.13040161 64.71856689 C68.40919251 62.44693737 68.83471363 60.34192366 69.44680786 58.14044189 C74.03214169 57.33126534 76.77721859 57.20652404 81.44680786 58.14044189 C82.10680786 62.76044189 82.76680786 67.38044189 83.44680786 72.14044189 C93.46934283 70.92892668 102.38021488 68.67373838 111.44680786 64.14044189 C108.1384063 55.04633326 101.94874577 48.61438891 93.44680786 44.14044189 C76.91968496 36.4917734 58.30007304 40.57280483 45.44680786 53.14044189 Z " fill="#000000" transform="translate(180.55319213867188,347.85955810546875)"/>
<path d="M0 0 C2.55078958 2.22165544 2.93332671 3.60829443 3.5 6.9375 C2.81754396 11.11754325 1.18120475 12.233735 -2 15 C-4.56110183 16.62455894 -7.21498517 17.98031308 -9.9375 19.3125 C-10.62779297 19.67150391 -11.31808594 20.03050781 -12.02929688 20.40039062 C-16.14178278 22.44688835 -19.3044307 23.63750065 -24 23 C-27.32274404 20.54405875 -28.77618008 19.0743356 -29.625 15 C-28.77564821 10.92311142 -27.14166318 9.72222647 -24 7 C-21.29814109 5.33270261 -18.49985428 3.96693373 -15.625 2.625 C-14.89539063 2.25761719 -14.16578125 1.89023437 -13.4140625 1.51171875 C-8.56808349 -0.78146775 -5.36556536 -1.44849863 0 0 Z " fill="#000000" transform="translate(293,301)"/>
<path d="M0 0 C4.01986734 1.02166502 7.4992205 2.94174936 11.10839844 4.94262695 C11.86636719 5.34223633 12.62433594 5.7418457 13.40527344 6.15356445 C18.96075813 9.15866649 18.96075813 9.15866649 21.23339844 12.56762695 C21.67089844 15.44262695 21.67089844 15.44262695 21.23339844 18.56762695 C18.94433733 21.66459198 17.5254207 23.34967183 13.66308594 24.0012207 C8.6733591 23.37040102 4.85713439 21.14836603 0.48339844 18.75512695 C-0.37898437 18.30331055 -1.24136719 17.85149414 -2.12988281 17.38598633 C-8.4957323 13.97393085 -8.4957323 13.97393085 -10.76660156 10.56762695 C-11.37784138 6.55090814 -11.07613808 5.02225872 -8.76660156 1.63012695 C-5.38270446 -0.69630231 -3.95718728 -0.62074414 0 0 Z " fill="#000000" transform="translate(226.7666015625,300.432373046875)"/>
</svg>
